<svg width="204" height="133" viewBox="0 0 204 133" fill="none" xmlns="http://www.w3.org/2000/svg">
<path d="M0.6 131V2.19999H88.2V19.2H22.4V58.2H80.8V75H22.4V131H0.6ZM165.883 133C144.683 133 128.616 127.2 117.683 115.6C106.883 104 101.483 88.3333 101.483 68.6C101.483 54.4667 103.749 42.3333 108.283 32.2C112.949 21.9333 120.016 14.0667 129.483 8.59999C138.949 2.99999 151.016 0.199991 165.683 0.199991C173.149 0.199991 179.949 0.799991 186.083 1.99999C192.349 3.06666 198.149 4.53333 203.483 6.39999V25.4C198.149 23.2667 192.416 21.6667 186.283 20.6C180.283 19.4 173.949 18.8 167.283 18.8C151.283 18.8 139.949 23.0667 133.283 31.6C126.749 40.1333 123.483 52.4667 123.483 68.6C123.483 83.6667 127.083 95.1333 134.283 103C141.483 110.733 152.616 114.6 167.683 114.6C173.816 114.6 179.949 114.133 186.083 113.2C192.349 112.133 198.216 110.533 203.683 108.4V127.6C198.349 129.333 192.549 130.667 186.283 131.6C180.149 132.533 173.349 133 165.883 133Z" fill="#0EBBE1"/>
</svg>
